<svg width="481" height="481" viewBox="0 0 481 481" fill="none" xmlns="http://www.w3.org/2000/svg">
<g clip-path="url(#clip0)">
<path d="M479.426 267.581C475.879 243.007 456.574 223.702 432 220.155V205.611C432 165.483 401.496 132.811 364 132.811C327.584 132.811 297.096 164.491 296 203.435H296.464L296 203.515V361.171C296 411.571 258.32 452.499 212 452.499C165.68 452.499 128 411.515 128 361.171V347.515C139.6 347.515 152 339.107 152 315.515V295.395C203.344 282.267 240 238.179 240 188.195V171.515H224L223.664 67.395C223.548 48.122 209.718 31.666 190.752 28.235C186.661 15.702 173.184 8.85801 160.65 12.95C148.117 17.041 141.273 30.518 145.365 43.052C149.456 55.585 162.933 62.429 175.467 58.337C182.178 56.146 187.575 51.097 190.208 44.547C200.457 47.463 207.557 56.787 207.64 67.443L208 171.515H192V188.427C191.362 216.254 172.706 240.436 145.952 248.115C131.637 252.657 116.267 252.657 101.952 248.115C75.229 240.41 56.615 216.232 56 188.427V171.515H32V67.515C32.046 56.702 39.318 47.254 49.76 44.443C54.629 56.838 68.624 62.938 81.019 58.069C93.414 53.2 99.514 39.204 94.645 26.81C89.776 14.416 75.78 8.31501 63.386 13.184C56.67 15.823 51.488 21.33 49.264 28.195C30.091 31.471 16.053 48.064 16 67.515V171.515H0V188.155C0 238.195 36.68 282.299 88 295.395V315.515C88 339.107 100.4 347.515 112 347.515V361.171C112 420.371 156.856 468.499 212 468.499C267.144 468.499 312 420.315 312 361.171V203.899C312.8 173.539 336.144 148.835 364 148.835C392.672 148.835 416 174.307 416 205.635V220.155C385.389 224.573 364.156 252.97 368.574 283.581C372.992 314.192 401.389 335.425 432 331.007C462.611 326.589 483.844 298.191 479.426 267.581ZM168 43.515C163.582 43.515 160 39.933 160 35.515C160 31.097 163.582 27.515 168 27.515C172.418 27.515 176 31.097 176 35.515C176 39.933 172.418 43.515 168 43.515ZM72 27.515C76.418 27.515 80 31.097 80 35.515C80 39.933 76.418 43.515 72 43.515C67.582 43.515 64 39.933 64 35.515C64 31.097 67.582 27.515 72 27.515ZM16 188.155V187.515H40V188.427C40.6 223.198 63.733 253.543 97.104 263.331C114.591 268.868 133.361 268.868 150.848 263.331C184.235 253.556 207.389 223.21 208 188.427V187.515H224V188.155C224 232.659 189.696 271.819 142.4 281.291C131.294 283.515 119.918 284.073 108.648 282.947C104.938 282.587 101.25 282.029 97.6 281.275C50.304 271.819 16 232.659 16 188.155ZM112 331.515C104.8 331.515 104 320.315 104 315.515V298.539C104.64 298.619 105.296 298.651 105.944 298.715C106.744 298.803 107.544 298.867 108.344 298.939C112.128 299.275 115.944 299.499 119.792 299.507H120.192C124.032 299.507 127.84 299.275 131.6 298.939C132.4 298.867 133.248 298.803 134.072 298.715C134.704 298.643 135.36 298.619 135.992 298.539V315.515C135.992 320.315 135.192 331.515 127.992 331.515H112ZM424 315.515C401.909 315.515 384 297.606 384 275.515C384 253.424 401.909 235.515 424 235.515C446.091 235.515 464 253.424 464 275.515C463.974 297.596 446.08 315.489 424 315.515Z" fill="white"/>
<path d="M424 251.515C410.745 251.515 400 262.26 400 275.515C400 288.77 410.745 299.515 424 299.515C437.255 299.515 448 288.77 448 275.515C448 262.26 437.255 251.515 424 251.515ZM424 283.515C419.582 283.515 416 279.933 416 275.515C416 271.097 419.582 267.515 424 267.515C428.418 267.515 432 271.097 432 275.515C432 279.933 428.418 283.515 424 283.515Z" fill="white"/>
</g>
<defs>
<clipPath id="clip0">
<rect width="480.007" height="480.007" fill="white"/>
</clipPath>
</defs>
</svg>
