<svg width="512" height="512" viewBox="0 0 512 512" fill="none" xmlns="http://www.w3.org/2000/svg">
<path d="M234.667 192H266.667C272.563 192 277.334 187.229 277.334 181.333V138.666C277.334 132.77 272.563 127.999 266.667 127.999H234.667V96C234.667 90.104 229.896 85.333 224 85.333H181.333C175.437 85.333 170.666 90.104 170.666 96V128H138.666C132.77 128 127.999 132.771 127.999 138.667V181.334C127.999 187.23 132.77 192.001 138.666 192.001H170.666V224.001C170.666 229.897 175.437 234.668 181.333 234.668H224C229.896 234.668 234.667 229.897 234.667 224.001V192ZM224 170.667C218.104 170.667 213.333 175.438 213.333 181.334V213.334H192V181.334C192 175.438 187.229 170.667 181.333 170.667H149.333V149.334H181.333C187.229 149.334 192 144.563 192 138.667V106.667H213.333V138.667C213.333 144.563 218.104 149.334 224 149.334H256V170.667H224Z" fill="white"/>
<path d="M444.875 109.792L338.208 3.125C336.208 1.125 333.5 0 330.666 0H106.666C83.146 0 64 19.135 64 42.667V469.334C64 492.865 83.146 512 106.667 512H405.334C428.854 512 448 492.865 448 469.333V117.333C448 114.5 446.875 111.792 444.875 109.792ZM341.333 36.417L411.583 106.667H362.666C350.895 106.667 341.333 97.094 341.333 85.334V36.417V36.417ZM426.667 469.333C426.667 481.093 417.104 490.666 405.334 490.666H106.667C94.896 490.666 85.334 481.093 85.334 469.333V42.667C85.334 30.907 94.897 21.334 106.667 21.334H320V85.334C320 108.865 339.146 128 362.667 128H426.667V469.333Z" fill="white"/>
<path d="M160 277.333C142.354 277.333 128 291.687 128 309.333C128 326.979 142.354 341.333 160 341.333C177.646 341.333 192 326.979 192 309.333C192 291.688 177.646 277.333 160 277.333ZM160 320C154.125 320 149.333 315.219 149.333 309.333C149.333 303.448 154.125 298.666 160 298.666C165.875 298.666 170.667 303.447 170.667 309.333C170.667 315.219 165.875 320 160 320Z" fill="white"/>
<path d="M160 384C142.354 384 128 398.354 128 416C128 433.646 142.354 448 160 448C177.646 448 192 433.646 192 416C192 398.354 177.646 384 160 384ZM160 426.667C154.125 426.667 149.333 421.886 149.333 416C149.333 410.115 154.125 405.333 160 405.333C165.875 405.333 170.667 410.114 170.667 416C170.667 421.885 165.875 426.667 160 426.667Z" fill="white"/>
<path d="M234.667 309.333C234.667 315.229 239.438 320 245.334 320H373.334C379.23 320 384.001 315.229 384.001 309.333C384.001 303.437 379.23 298.666 373.334 298.666H245.334C239.438 298.667 234.667 303.438 234.667 309.333Z" fill="white"/>
<path d="M373.333 405.333H245.333C239.437 405.333 234.666 410.104 234.666 416C234.666 421.896 239.437 426.667 245.333 426.667H373.333C379.229 426.667 384 421.896 384 416C384 410.104 379.229 405.333 373.333 405.333Z" fill="white"/>
</svg>
