<svg width="512" height="512" viewBox="0 0 512 512" fill="none" xmlns="http://www.w3.org/2000/svg">
<g clip-path="url(#clip0)">
<path d="M340.366 164.133C433.854 162.705 510.158 236.286 511.968 329.767C512.234 343.492 510.862 356.851 508.036 369.665C503.25 391.362 500.405 413.441 500.405 435.66V478.608C500.405 485.188 495.071 490.522 488.491 490.522H445.543C423.324 490.522 401.245 493.367 379.548 498.153C366.735 500.979 353.376 502.351 339.651 502.085C246.171 500.276 172.59 423.974 174.016 330.488C175.407 239.238 249.117 165.527 340.366 164.133Z" fill="#63a2ff"/>
<path d="M209.098 9.909C95.204 8.169 2.24499 97.81 0.0389931 211.696C-0.284007 228.415 1.38699 244.692 4.83099 260.302C10.661 286.734 14.127 313.633 14.127 340.702V393.024C14.127 401.04 20.625 407.539 28.642 407.539H80.964C108.032 407.539 134.931 411.005 161.364 416.835C176.974 420.278 193.25 421.95 209.969 421.626C323.853 419.421 413.494 326.465 411.758 212.573C410.062 101.406 320.264 11.606 209.098 9.909Z" fill="#15986A"/>
<path d="M108.986 258.456C126.599 258.456 140.877 244.178 140.877 226.565C140.877 208.952 126.599 194.674 108.986 194.674C91.3731 194.674 77.095 208.952 77.095 226.565C77.095 244.178 91.3731 258.456 108.986 258.456Z" fill="white"/>
<path d="M199.178 258.456C216.791 258.456 231.069 244.178 231.069 226.565C231.069 208.952 216.791 194.674 199.178 194.674C181.565 194.674 167.287 208.952 167.287 226.565C167.287 244.178 181.565 258.456 199.178 258.456Z" fill="white"/>
<path d="M289.371 258.456C306.984 258.456 321.262 244.178 321.262 226.565C321.262 208.952 306.984 194.674 289.371 194.674C271.758 194.674 257.48 208.952 257.48 226.565C257.48 244.178 271.758 258.456 289.371 258.456Z" fill="white"/>
</g>
<defs>
<clipPath id="clip0">
<rect width="512.001" height="512.001" fill="white"/>
</clipPath>
</defs>
</svg>
