<svg width="512" height="512" viewBox="0 0 512 512" fill="none" xmlns="http://www.w3.org/2000/svg">
<path d="M468.884 439.242V180.547C468.884 176.081 465.266 172.463 460.8 172.463C456.334 172.463 452.716 176.082 452.716 180.547V439.242C452.716 443.708 456.335 447.326 460.8 447.326C465.266 447.326 468.884 443.708 468.884 439.242Z" fill="white"/>
<path d="M185.937 388.042H110.484C94.139 388.042 80.842 401.34 80.842 417.684V482.358C80.842 487.206 82.013 491.787 84.084 495.832H45.811C41.346 495.832 37.727 499.451 37.727 503.916C37.727 508.382 41.347 512 45.811 512H185.937C202.282 512 215.579 498.702 215.579 482.358V417.684C215.579 401.34 202.282 388.042 185.937 388.042ZM199.411 482.358C199.411 489.788 193.367 495.832 185.937 495.832H110.484C103.054 495.832 97.01 489.788 97.01 482.358V447.326H180.547C185.012 447.326 188.631 443.708 188.631 439.242C188.631 434.776 185.011 431.158 180.547 431.158H97.011V417.684C97.011 410.254 103.055 404.21 110.485 404.21H185.938C193.368 404.21 199.412 410.254 199.412 417.684V482.358H199.411Z" fill="white"/>
<path d="M18.863 495.832H8.084C3.62 495.832 0 499.45 0 503.916C0 508.382 3.62 512 8.084 512H18.863C23.328 512 26.947 508.382 26.947 503.916C26.947 499.45 23.328 495.832 18.863 495.832Z" fill="white"/>
<path d="M439.242 97.011H428.463V29.642C428.463 13.298 415.165 0 398.821 0H361.095C344.751 0 331.453 13.298 331.453 29.642V97.01H320.674C284.991 97.01 254.816 122.514 248.922 157.652C248.183 162.056 251.154 166.223 255.558 166.963C259.96 167.698 264.128 164.73 264.869 160.327C269.451 133.007 292.921 113.178 320.675 113.178H439.243C470.446 113.178 495.832 138.565 495.832 169.767V482.356C495.832 489.786 489.788 495.83 482.358 495.83H353.01C348.544 495.83 344.926 499.449 344.926 503.914C344.926 508.38 348.544 511.998 353.01 511.998H482.357C498.702 512 512 498.702 512 482.358V169.768C512 129.649 479.361 97.011 439.242 97.011ZM412.295 97.011H347.621V29.642C347.621 22.212 353.665 16.168 361.095 16.168H398.821C406.251 16.168 412.295 22.212 412.295 29.642V97.011V97.011Z" fill="white"/>
<path d="M285.642 312.589H282.947V212.884C282.947 196.54 269.649 183.242 253.305 183.242H231.747C215.402 183.242 202.105 196.54 202.105 212.884V312.589H199.41C171.179 312.589 148.21 335.558 148.21 363.789C148.21 368.255 151.83 371.873 156.294 371.873C160.758 371.873 164.378 368.255 164.378 363.789C164.378 344.472 180.094 328.757 199.41 328.757H285.642C304.959 328.757 320.674 344.472 320.674 363.789V482.357C320.674 489.787 314.63 495.831 307.2 495.831H234.442C229.977 495.831 226.358 499.45 226.358 503.915C226.358 508.381 229.978 511.999 234.442 511.999H307.2C323.544 511.999 336.842 498.701 336.842 482.357V363.789C336.842 335.558 313.873 312.589 285.642 312.589ZM266.779 312.589H218.274V212.884C218.274 205.454 224.318 199.41 231.748 199.41H253.306C260.736 199.41 266.78 205.454 266.78 212.884V312.589H266.779Z" fill="white"/>
<path d="M296.421 460.8V363.79C296.421 359.324 292.802 355.706 288.337 355.706C283.871 355.706 280.253 359.324 280.253 363.79V460.8C280.253 465.266 283.871 468.884 288.337 468.884C292.803 468.884 296.421 465.266 296.421 460.8Z" fill="white"/>
</svg>
