<svg id="Glyph" height="512" viewBox="0 0 128 128" width="512" xmlns="http://www.w3.org/2000/svg"><path fill="#15986a" d="m128 74.64a4.31 4.31 0 0 1 -2.39 3.88l-44.49 22.61a1 1 0 0 1 -.41.11l-50.78 2.07-1.43-35 15.22-7.8a1.15 1.15 0 0 1 .47-.11l38 .73a1 1 0 0 1 1 1 14.12 14.12 0 0 1 -12.44 14l-15.93 2-.89 1.65 26.29 2.61 36.28-13.75a9 9 0 0 1 10.86 3.75 4.36 4.36 0 0 1 .64 2.25z"/><path fill="#15986a" d="m28 105.13a1 1 0 0 1 -.27.72 1 1 0 0 1 -.69.32l-24.49 1a1 1 0 0 1 -1-1l-1.55-36.91a1 1 0 0 1 .27-.72 1 1 0 0 1 .73-.32l24.49-1a1 1 0 0 1 1 1z"/><path fill="#15986a" d="m91.93 47.3a12.16 12.16 0 0 0 7.71 21.54 12 12 0 0 0 6-1.62z"/><path fill="#15986a" d="m109.62 49.8a12.13 12.13 0 0 0 -16-3.63l13.68 19.91a12.16 12.16 0 0 0 2.32-16.28z"/><path fill="#15986a" d="m74.55 30.93-11.85 7.59a8.6 8.6 0 0 0 2.79 15.65 8.42 8.42 0 0 0 1.86.21 8.57 8.57 0 0 0 4.65-1.38l12-7.68z"/><path fill="#15986a" d="m100.09 24.8a8.59 8.59 0 0 0 -11.88-2.61l-12 7.66 9.43 14.41 11.82-7.57a8.61 8.61 0 0 0 2.63-11.89z"/></svg>