<svg id="Capa_1" enable-background="new 0 0 512 512" height="512" viewBox="0 0 512 512" width="512" xmlns="http://www.w3.org/2000/svg"><g><path style="fill:#ffffff;" d="m106.362 204.815h-47.918c-4.143 0-7.5 3.357-7.5 7.5s3.357 7.5 7.5 7.5h47.918c4.143 0 7.5-3.357 7.5-7.5s-3.357-7.5-7.5-7.5z"/><path style="fill:#ffffff;" d="m106.362 408.163h-47.918c-4.143 0-7.5 3.357-7.5 7.5s3.357 7.5 7.5 7.5h47.918c4.143 0 7.5-3.357 7.5-7.5s-3.357-7.5-7.5-7.5z"/><path style="fill:#ffffff;" d="m405.637 219.815h47.918c4.143 0 7.5-3.357 7.5-7.5s-3.357-7.5-7.5-7.5h-47.918c-4.143 0-7.5 3.357-7.5 7.5s3.357 7.5 7.5 7.5z"/><path style="fill:#ffffff;" d="m405.637 423.163h47.918c4.143 0 7.5-3.357 7.5-7.5s-3.357-7.5-7.5-7.5h-47.918c-4.143 0-7.5 3.357-7.5 7.5s3.357 7.5 7.5 7.5z"/><path style="fill:#ffffff;" d="m235.55 399.521h40.899c11.972 0 21.712-9.74 21.712-21.712v-14.946c0-3.701 3.011-6.712 6.711-6.712h14.947c11.972 0 21.712-9.739 21.712-21.711v-40.9c0-11.972-9.74-21.712-21.712-21.712h-14.947c-3.7 0-6.711-3.011-6.711-6.711v-14.948c0-11.972-9.74-21.711-21.712-21.711h-40.899c-11.972 0-21.711 9.739-21.711 21.711v14.948c0 3.7-3.011 6.711-6.712 6.711h-14.947c-11.972 0-21.711 9.74-21.711 21.712v5.416c0 4.143 3.357 7.5 7.5 7.5s7.5-3.357 7.5-7.5v-5.416c0-3.701 3.011-6.712 6.711-6.712h14.947c11.972 0 21.712-9.739 21.712-21.711v-14.948c0-3.7 3.011-6.711 6.711-6.711h40.899c3.701 0 6.712 3.011 6.712 6.711v14.948c0 11.972 9.739 21.711 21.711 21.711h14.947c3.701 0 6.712 3.011 6.712 6.712v40.899c0 3.7-3.011 6.711-6.712 6.711h-14.947c-11.972 0-21.711 9.74-21.711 21.712v14.946c0 3.701-3.011 6.712-6.712 6.712h-40.899c-3.7 0-6.711-3.011-6.711-6.712v-14.946c0-11.972-9.74-21.712-21.712-21.712h-14.947c-3.7 0-6.711-3.011-6.711-6.711v-5.417c0-4.143-3.357-7.5-7.5-7.5s-7.5 3.357-7.5 7.5v5.417c0 11.972 9.739 21.711 21.711 21.711h14.947c3.701 0 6.712 3.011 6.712 6.712v14.946c0 11.972 9.739 21.713 21.711 21.713z"/><path style="fill:#ffffff;" d="m479.441 157.945h-14.21v-7.632c0-10.184-8.284-18.468-18.467-18.468h-30.68c-10.183 0-18.467 8.284-18.467 18.468v7.632h-32.101v-13.536c0-9.464-7.7-17.164-17.164-17.164h-13.279v-28.115c0-31.52-25.644-57.163-57.163-57.163h-6.224c-4.143 0-7.5 3.357-7.5 7.5s3.357 7.5 7.5 7.5h6.224c23.249 0 42.163 18.914 42.163 42.163v28.115h-13.073v-28.115c0-16.04-13.049-29.089-29.089-29.089h-42.513c-16.04 0-29.09 13.049-29.09 29.089v28.115h-13.073v-28.115c0-23.249 18.914-42.163 42.163-42.163h6.224c4.143 0 7.5-3.357 7.5-7.5s-3.357-7.5-7.5-7.5h-6.224c-31.52 0-57.163 25.644-57.163 57.163v28.115h-13.279c-9.464 0-17.164 7.7-17.164 17.164v13.536h-32.101v-7.632c0-10.184-8.284-18.468-18.467-18.468h-30.68c-10.184 0-18.468 8.284-18.468 18.468v7.632h-15.52c-17.951 0-32.556 14.606-32.556 32.559v246.971c0 17.953 14.605 32.559 32.558 32.559h310.427c4.143 0 7.5-3.357 7.5-7.5s-3.357-7.5-7.5-7.5h-310.427c-9.682 0-17.558-7.877-17.558-17.559v-246.971c0-9.682 7.876-17.559 17.558-17.559h446.884c9.682 0 17.559 7.877 17.559 17.559v246.971c0 9.682-7.877 17.559-17.559 17.559h-106.392c-4.143 0-7.5 3.357-7.5 7.5s3.357 7.5 7.5 7.5h106.392c17.953 0 32.559-14.605 32.559-32.559v-246.971c-.001-17.953-14.606-32.559-32.56-32.559zm-378.75 0h-37.614v-7.632c0-1.912 1.556-3.468 3.468-3.468h30.68c1.911 0 3.467 1.556 3.467 3.468v7.632zm120.618-58.815c0-7.769 6.32-14.089 14.09-14.089h42.513c7.769 0 14.089 6.32 14.089 14.089v28.115h-70.691v-28.115zm129.209 58.815h-187.726v-13.536c0-1.193.971-2.164 2.164-2.164h183.397c1.193 0 2.164.971 2.164 2.164v13.536zm99.713 0h-37.613v-7.632c0-1.912 1.556-3.468 3.467-3.468h30.68c1.911 0 3.467 1.556 3.467 3.468v7.632z"/></g></svg>