<svg  viewBox="0 0 512 512" fill="none" xmlns="http://www.w3.org/2000/svg">
<g clip-path="url(#clip0)">
<path fill-rule="evenodd" clip-rule="evenodd" d="M421.689 512C439.093 512 453.327 497.797 453.327 480.432V197.453C442.291 199.542 69.172 199.458 58.673 197.453V480.432C58.673 497.797 72.907 512 90.283 512H421.689Z" fill="#F9F7F8"/>
<path fill-rule="evenodd" clip-rule="evenodd" d="M422.425 268.127V497.712C422.425 502.851 421.18 507.707 418.973 511.999H421.69C439.094 511.999 453.328 497.796 453.328 480.431V272.841V197.451C453.102 197.479 452.762 197.507 452.281 197.564C448.772 197.846 438.103 198.1 422.426 198.298V268.127H422.425Z" fill="#DDDAEC"/>
<path fill-rule="evenodd" clip-rule="evenodd" d="M77.775 146.77L180.952 157.076L168.019 98.091H105.224C90.112 98.091 77.774 110.402 77.774 125.48V146.77H77.775Z" fill="#673AB7"/>
<path fill-rule="evenodd" clip-rule="evenodd" d="M343.981 98.091L331.02 157.076L434.225 146.77V125.48C434.225 110.402 421.858 98.091 406.775 98.091H343.981Z" fill="#673AB7"/>
<path fill-rule="evenodd" clip-rule="evenodd" d="M303.146 238.161C303.146 267.795 324.342 292 350.263 292C376.213 292 397.409 267.795 397.409 238.161C397.409 267.795 418.633 292 444.555 292C447.555 292 450.469 291.677 453.328 291.063C475.09 286.345 491.701 264.369 491.701 238.161V186.68C491.701 156.593 470.618 146.77 453.328 146.77H434.226H341.35C324.399 180.573 292.535 203.324 256.001 203.324C219.467 203.324 187.575 180.573 170.652 146.77H77.775H58.673C41.354 146.77 20.3 156.595 20.3 186.68V238.161C20.3 264.369 36.883 286.345 58.673 291.063C61.503 291.676 64.446 292 67.417 292C93.367 292 114.563 267.795 114.563 238.161C114.563 267.795 135.787 292 161.709 292C187.631 292 208.855 267.795 208.855 238.161C208.855 267.795 230.079 292 256.001 292C281.923 292 303.146 267.795 303.146 238.161Z" fill="#15986A"/>
<path fill-rule="evenodd" clip-rule="evenodd" d="M170.623 146.77C187.574 176.305 219.467 196.183 256 196.183C292.533 196.183 324.398 176.305 341.349 146.77C349.584 132.426 354.31 115.795 354.31 98.091C354.31 43.907 310.277 0 256 0C201.695 0 157.69 43.907 157.69 98.091C157.69 115.795 162.388 132.426 170.623 146.77Z" fill="#F9F7F8"/>
<path fill-rule="evenodd" clip-rule="evenodd" d="M253.17 0.028C295.646 10.842 327.086 49.3 327.086 95.07C327.086 112.802 322.36 129.433 314.125 143.777C297.627 172.521 266.951 192.117 231.606 193.133C239.388 195.109 247.566 196.182 256 196.182C288.261 196.182 316.899 180.652 334.812 156.708C337.189 153.546 339.368 150.214 341.349 146.769C349.584 132.425 354.31 115.794 354.31 98.09C354.31 43.907 310.277 0 256 0C255.038 0 254.104 0 253.17 0.028Z" fill="#DDDAEC"/>
<path fill-rule="evenodd" clip-rule="evenodd" d="M387.419 314.434H314.154C302.778 314.434 293.468 323.724 293.468 335.074V512H408.106V335.074C408.106 323.724 398.795 314.434 387.419 314.434Z" fill="#63A2FF"/>
<path fill-rule="evenodd" clip-rule="evenodd" d="M245.897 447.284V333.86C245.897 322.481 236.558 313.163 225.154 313.163H119.119C107.715 313.163 98.404 322.481 98.404 333.86V447.283C98.404 458.662 107.714 467.952 119.119 467.952H225.154C236.559 467.952 245.897 458.663 245.897 447.284Z" fill="#63A2FF"/>
<path fill-rule="evenodd" clip-rule="evenodd" d="M293.496 333.86H345.113H356.489H363.705C375.081 333.86 384.391 343.15 384.391 354.5V429.268V512H408.105V335.074C408.105 323.723 398.795 314.434 387.419 314.434H314.154C303.174 314.434 294.147 323.074 293.496 333.86Z" fill="#3F8CFF"/>
<path fill-rule="evenodd" clip-rule="evenodd" d="M151.606 406.257L192.696 374.887L175.887 352.948C167.228 341.654 150.928 339.48 139.608 348.12C128.317 356.732 126.138 373.024 134.769 384.29L151.606 406.257Z" fill="#673AB7"/>
<path fill-rule="evenodd" clip-rule="evenodd" d="M192.696 374.887L151.606 406.257L168.415 428.196C177.046 439.462 193.374 441.636 204.666 433.024C215.985 424.412 218.164 408.12 209.505 396.854L192.696 374.887Z" fill="#F9F7F8"/>
<path fill-rule="evenodd" clip-rule="evenodd" d="M159.416 363.395L176.254 385.334L177.273 386.661L192.696 374.887L175.887 352.948C167.228 341.654 150.928 339.48 139.608 348.12C138.787 348.741 138.023 349.391 137.316 350.097C147.191 347.357 152.851 354.783 159.416 363.395Z" fill="#511EAD"/>
<path fill-rule="evenodd" clip-rule="evenodd" d="M192.696 374.887L177.273 386.661L193.064 407.273C201.073 417.748 205.176 428.393 195.922 437.372C199.007 436.525 201.978 435.085 204.666 433.024C215.985 424.412 218.164 408.12 209.505 396.854L192.696 374.887Z" fill="#DDDAEC"/>
<path fill-rule="evenodd" clip-rule="evenodd" d="M225.154 354.557V467.952C236.558 467.952 245.897 458.662 245.897 447.283V333.86C245.897 322.481 236.558 313.163 225.154 313.163H119.119C107.715 313.163 98.404 322.481 98.404 333.86H200.534C211.939 333.86 225.183 343.178 225.154 354.557Z" fill="#3F8CFF"/>
<path fill-rule="evenodd" clip-rule="evenodd" d="M237.181 116.84V146.346C237.181 147.871 238.426 149.141 239.954 149.141H272.016C273.544 149.141 274.818 147.87 274.818 146.346V116.84H304.362C305.89 116.84 307.164 115.598 307.164 114.073V82.081C307.164 80.556 305.891 79.314 304.362 79.314H274.818V49.808C274.818 48.283 273.545 47.041 272.016 47.041H239.954C238.426 47.041 237.181 48.283 237.181 49.808V79.314H207.609C206.081 79.314 204.836 80.556 204.836 82.081V114.072C204.836 115.597 206.081 116.839 207.609 116.839H237.181V116.84Z" fill="#15986A"/>
<path fill-rule="evenodd" clip-rule="evenodd" d="M304.363 79.314H274.819V49.808C274.819 48.283 273.546 47.041 272.017 47.041H247.68C257.302 62.175 262.876 80.162 262.876 99.418C262.876 117.15 258.15 133.781 249.915 148.125C249.717 148.464 249.519 148.803 249.321 149.142H272.017C273.545 149.142 274.819 147.871 274.819 146.347V116.84H304.363C305.891 116.84 307.165 115.598 307.165 114.073V82.081C307.164 80.557 305.891 79.314 304.363 79.314Z" fill="#0C845A"/>
<path d="M324.653 419.122H324.455C320.188 419.122 316.729 415.663 316.729 411.396C316.729 407.129 320.188 403.67 324.455 403.67H324.653C328.92 403.67 332.379 407.129 332.379 411.396C332.379 415.663 328.92 419.122 324.653 419.122Z" fill="#2B4D66"/>
<path fill-rule="evenodd" clip-rule="evenodd" d="M408.106 512H486.12C487.827 512 489.211 510.616 489.211 508.909V379.728C489.211 378.021 487.827 376.637 486.12 376.637H411.197C409.49 376.637 408.106 378.021 408.106 379.728V512Z" fill="#673AB7"/>
<path fill-rule="evenodd" clip-rule="evenodd" d="M74.124 415.575C98.885 415.575 119.147 435.792 119.147 460.498V512H32.163C30.456 512 29.072 510.616 29.072 508.909V460.497C29.073 435.792 49.363 415.575 74.124 415.575Z" fill="#15986A"/>
<path fill-rule="evenodd" clip-rule="evenodd" d="M90.368 459.877V511.351H29.073V512H97.075H119.148V460.808V460.497C119.148 448.214 114.167 437.061 106.074 428.929C97.896 420.684 86.576 415.573 74.125 415.573C69.908 415.573 65.833 416.166 61.957 417.239C61.533 417.38 61.108 417.493 60.684 417.634C61.108 417.775 61.533 417.945 61.957 418.114C78.567 424.751 90.368 440.987 90.368 459.877Z" fill="#08724D"/>
<path d="M456.468 419.122H440.847C436.58 419.122 433.121 415.663 433.121 411.396C433.121 407.129 436.58 403.67 440.847 403.67H456.468C460.735 403.67 464.194 407.129 464.194 411.396C464.194 415.663 460.735 419.122 456.468 419.122Z" fill="white"/>
<path d="M456.468 453.061H440.847C436.58 453.061 433.121 449.602 433.121 445.335C433.121 441.068 436.58 437.609 440.847 437.609H456.468C460.735 437.609 464.194 441.068 464.194 445.335C464.195 449.602 460.735 453.061 456.468 453.061Z" fill="white"/>
<path d="M456.468 487.029H440.847C436.58 487.029 433.121 483.57 433.121 479.303C433.121 475.036 436.58 471.577 440.847 471.577H456.468C460.735 471.577 464.194 475.036 464.194 479.303C464.195 483.57 460.735 487.029 456.468 487.029Z" fill="white"/>
<path fill-rule="evenodd" clip-rule="evenodd" d="M468.976 376.637V512H486.119C487.826 512 489.21 510.616 489.21 508.909V379.728C489.21 378.021 487.826 376.637 486.119 376.637H468.976Z" fill="#5517C2"/>
<path fill-rule="evenodd" clip-rule="evenodd" d="M363.026 98.091C378.138 98.091 390.476 110.402 390.476 125.48V146.77H434.226V125.48C434.226 110.402 421.859 98.091 406.776 98.091H363.026Z" fill="#3E1A7E"/>
<path d="M105.464 225.372V234H102.558V211.961H110.687C113.098 211.961 114.985 212.576 116.348 213.808C117.72 215.039 118.406 216.668 118.406 218.697C118.406 220.836 117.735 222.486 116.393 223.646C115.061 224.797 113.149 225.372 110.656 225.372H105.464ZM105.464 222.996H110.687C112.241 222.996 113.431 222.632 114.259 221.906C115.086 221.169 115.5 220.11 115.5 218.727C115.5 217.415 115.086 216.366 114.259 215.579C113.431 214.792 112.296 214.383 110.853 214.353H105.464V222.996ZM124.476 219.605C125.717 218.081 127.332 217.319 129.32 217.319C132.781 217.319 134.527 219.272 134.557 223.177V234H131.757V223.162C131.747 221.981 131.474 221.109 130.939 220.543C130.415 219.978 129.592 219.696 128.472 219.696C127.564 219.696 126.767 219.938 126.081 220.422C125.394 220.907 124.86 221.542 124.476 222.33V234H121.676V210.75H124.476V219.605ZM148.861 234C148.7 233.677 148.569 233.102 148.468 232.274C147.166 233.627 145.612 234.303 143.806 234.303C142.191 234.303 140.864 233.849 139.825 232.94C138.795 232.022 138.281 230.862 138.281 229.459C138.281 227.754 138.927 226.432 140.218 225.493C141.52 224.545 143.347 224.07 145.698 224.07H148.422V222.784C148.422 221.805 148.13 221.028 147.544 220.453C146.959 219.867 146.096 219.575 144.956 219.575C143.957 219.575 143.119 219.827 142.443 220.332C141.767 220.836 141.429 221.447 141.429 222.163H138.614C138.614 221.346 138.901 220.559 139.477 219.802C140.062 219.035 140.849 218.429 141.838 217.985C142.837 217.541 143.932 217.319 145.123 217.319C147.01 217.319 148.488 217.794 149.558 218.742C150.627 219.681 151.182 220.977 151.223 222.632V230.17C151.223 231.674 151.414 232.87 151.798 233.758V234H148.861ZM144.214 231.866C145.092 231.866 145.925 231.639 146.712 231.185C147.499 230.73 148.069 230.14 148.422 229.414V226.053H146.228C142.797 226.053 141.081 227.057 141.081 229.065C141.081 229.943 141.374 230.63 141.959 231.124C142.544 231.618 143.296 231.866 144.214 231.866ZM163.529 220.135C163.105 220.064 162.646 220.029 162.151 220.029C160.315 220.029 159.069 220.811 158.413 222.375V234H155.612V217.622H158.337L158.382 219.514C159.301 218.051 160.602 217.319 162.288 217.319C162.833 217.319 163.246 217.39 163.529 217.531V220.135ZM168.751 217.622L168.827 219.438C170.028 218.026 171.647 217.319 173.686 217.319C175.976 217.319 177.535 218.197 178.363 219.953C178.908 219.166 179.614 218.53 180.482 218.046C181.36 217.562 182.394 217.319 183.585 217.319C187.177 217.319 189.004 219.222 189.064 223.026V234H186.264V223.192C186.264 222.022 185.997 221.149 185.462 220.574C184.927 219.988 184.029 219.696 182.768 219.696C181.728 219.696 180.865 220.009 180.179 220.634C179.493 221.25 179.094 222.082 178.983 223.132V234H176.168V223.268C176.168 220.887 175.002 219.696 172.671 219.696C170.835 219.696 169.578 220.478 168.902 222.042V234H166.102V217.622H168.751ZM203.414 234C203.253 233.677 203.121 233.102 203.021 232.274C201.719 233.627 200.165 234.303 198.358 234.303C196.744 234.303 195.417 233.849 194.377 232.94C193.348 232.022 192.833 230.862 192.833 229.459C192.833 227.754 193.479 226.432 194.771 225.493C196.073 224.545 197.899 224.07 200.25 224.07H202.975V222.784C202.975 221.805 202.682 221.028 202.097 220.453C201.512 219.867 200.649 219.575 199.509 219.575C198.51 219.575 197.672 219.827 196.996 220.332C196.32 220.836 195.982 221.447 195.982 222.163H193.167C193.167 221.346 193.454 220.559 194.029 219.802C194.615 219.035 195.402 218.429 196.391 217.985C197.39 217.541 198.485 217.319 199.675 217.319C201.562 217.319 203.041 217.794 204.11 218.742C205.18 219.681 205.735 220.977 205.775 222.632V230.17C205.775 231.674 205.967 232.87 206.351 233.758V234H203.414ZM198.767 231.866C199.645 231.866 200.478 231.639 201.265 231.185C202.052 230.73 202.622 230.14 202.975 229.414V226.053H200.78C197.349 226.053 195.634 227.057 195.634 229.065C195.634 229.943 195.926 230.63 196.512 231.124C197.097 231.618 197.849 231.866 198.767 231.866ZM216.734 232.017C217.733 232.017 218.606 231.714 219.353 231.109C220.1 230.503 220.514 229.747 220.594 228.838H223.243C223.193 229.777 222.87 230.67 222.274 231.518C221.679 232.365 220.882 233.041 219.883 233.546C218.894 234.05 217.844 234.303 216.734 234.303C214.504 234.303 212.728 233.561 211.406 232.078C210.094 230.584 209.438 228.546 209.438 225.962V225.493C209.438 223.899 209.731 222.481 210.316 221.24C210.902 219.999 211.739 219.035 212.829 218.349C213.929 217.662 215.226 217.319 216.719 217.319C218.556 217.319 220.08 217.869 221.291 218.969C222.512 220.069 223.162 221.497 223.243 223.253H220.594C220.514 222.193 220.11 221.326 219.383 220.649C218.667 219.963 217.779 219.62 216.719 219.62C215.296 219.62 214.191 220.135 213.404 221.164C212.627 222.183 212.239 223.662 212.239 225.599V226.129C212.239 228.016 212.627 229.469 213.404 230.488C214.181 231.507 215.291 232.017 216.734 232.017ZM229.434 234H226.634V217.622H229.434V234ZM226.407 213.278C226.407 212.824 226.543 212.44 226.815 212.127C227.098 211.815 227.512 211.658 228.057 211.658C228.602 211.658 229.015 211.815 229.298 212.127C229.58 212.44 229.722 212.824 229.722 213.278C229.722 213.732 229.58 214.11 229.298 214.413C229.015 214.716 228.602 214.867 228.057 214.867C227.512 214.867 227.098 214.716 226.815 214.413C226.543 214.11 226.407 213.732 226.407 213.278ZM240.726 234.303C238.506 234.303 236.7 233.576 235.307 232.123C233.915 230.66 233.218 228.707 233.218 226.265V225.75C233.218 224.126 233.526 222.678 234.142 221.406C234.767 220.125 235.635 219.126 236.745 218.409C237.865 217.683 239.076 217.319 240.378 217.319C242.507 217.319 244.162 218.021 245.343 219.423C246.523 220.826 247.114 222.834 247.114 225.448V226.613H236.019C236.059 228.228 236.528 229.535 237.426 230.534C238.334 231.523 239.485 232.017 240.877 232.017C241.866 232.017 242.704 231.815 243.39 231.412C244.076 231.008 244.677 230.473 245.191 229.807L246.902 231.139C245.529 233.248 243.471 234.303 240.726 234.303ZM240.378 219.62C239.248 219.62 238.299 220.034 237.532 220.861C236.765 221.679 236.291 222.829 236.109 224.312H244.313V224.101C244.233 222.678 243.849 221.578 243.163 220.801C242.477 220.014 241.549 219.62 240.378 219.62ZM274.708 227.007C274.436 229.338 273.573 231.139 272.12 232.411C270.677 233.672 268.754 234.303 266.353 234.303C263.749 234.303 261.66 233.369 260.086 231.502C258.522 229.636 257.74 227.138 257.74 224.01V221.891C257.74 219.842 258.103 218.041 258.83 216.487C259.566 214.933 260.606 213.742 261.948 212.915C263.29 212.077 264.844 211.658 266.61 211.658C268.951 211.658 270.828 212.314 272.241 213.626C273.653 214.928 274.476 216.734 274.708 219.045H271.787C271.534 217.289 270.984 216.018 270.137 215.23C269.299 214.443 268.124 214.05 266.61 214.05C264.753 214.05 263.295 214.736 262.235 216.108C261.186 217.481 260.661 219.433 260.661 221.966V224.101C260.661 226.492 261.161 228.394 262.16 229.807C263.159 231.22 264.556 231.926 266.353 231.926C267.967 231.926 269.203 231.563 270.061 230.836C270.929 230.1 271.504 228.823 271.787 227.007H274.708ZM295.627 234H292.706V223.813H281.595V234H278.689V211.961H281.595V221.437H292.706V211.961H295.627V234ZM313.231 228.248H303.998L301.924 234H298.927L307.343 211.961H309.886L318.317 234H315.335L313.231 228.248ZM304.875 225.856H312.368L308.614 215.548L304.875 225.856ZM333.454 228.248H324.22L322.146 234H319.149L327.565 211.961H330.108L338.54 234H335.558L333.454 228.248ZM325.098 225.856H332.591L328.837 215.548L325.098 225.856ZM341.506 234V211.961H348.711C351.103 211.961 352.899 212.455 354.1 213.444C355.311 214.433 355.917 215.896 355.917 217.834C355.917 218.863 355.624 219.777 355.039 220.574C354.453 221.361 353.656 221.971 352.647 222.405C353.838 222.738 354.776 223.374 355.462 224.312C356.159 225.241 356.507 226.351 356.507 227.643C356.507 229.62 355.866 231.174 354.584 232.305C353.303 233.435 351.492 234 349.15 234H341.506ZM344.413 223.692V231.624H349.211C350.563 231.624 351.628 231.275 352.405 230.579C353.192 229.873 353.585 228.904 353.585 227.673C353.585 225.019 352.142 223.692 349.256 223.692H344.413ZM344.413 221.361H348.802C350.074 221.361 351.088 221.043 351.845 220.407C352.612 219.771 352.995 218.909 352.995 217.819C352.995 216.608 352.642 215.73 351.936 215.185C351.229 214.63 350.154 214.353 348.711 214.353H344.413V221.361ZM363.939 234H361.033V211.961H363.939V234ZM381.709 228.248H372.476L370.402 234H367.405L375.821 211.961H378.364L386.795 234H383.813L381.709 228.248ZM373.354 225.856H380.847L377.093 215.548L373.354 225.856Z" fill="white"/>
<g clip-path="url(#clip1)">
<path d="M420.448 244.766C406.953 231.92 406.425 210.489 419.271 196.994C428.168 187.647 441.365 184.202 453.712 188.004C454.268 188.176 454.652 188.68 454.666 189.259C454.68 189.838 454.325 190.365 453.782 190.565C449.297 192.215 445.345 194.817 442.035 198.294C430.216 210.71 430.702 230.426 443.116 242.243C446.632 245.59 450.757 248.006 455.379 249.431C455.934 249.602 456.318 250.106 456.332 250.685C456.348 251.266 455.991 251.791 455.448 251.99C443.262 256.483 429.849 253.715 420.448 244.766Z" fill="white"/>
</g>
</g>
<defs>
<clipPath id="clip0">
<rect width="512" height="512" fill="white"/>
</clipPath>
<clipPath id="clip1">
<rect width="64.2608" height="64.2608" fill="white" transform="translate(443.798 175) rotate(48.057)"/>
</clipPath>
</defs>
</svg>
