<svg width="512" height="512" viewBox="0 0 512 512" fill="none" xmlns="http://www.w3.org/2000/svg">
<path d="M250.892 386.029H141.029V125.971H250.892L260.524 256L250.892 386.029Z" stroke="white" stroke-width="11"/>
<path d="M255.5 125.5H370.5V386.5H255.5V125.5Z" stroke="white" stroke-width="11"/>
<path d="M209.82 199.697L232.119 210.824H256L266.039 195.765L256 180.706H202.001L209.82 199.697Z" fill="white"/>
<path d="M256 180.706H316.235V210.824H256V180.706Z" fill="white"/>
<path d="M195.765 240.941V271.059H249.764L237.511 252.068L219.646 240.941H195.765Z" fill="white"/>
<path d="M316.235 240.941H262.237L273.485 259.012L292.355 271.059H316.235V240.941Z" fill="white"/>
<path d="M195.765 301.176V331.294H256L266.039 316.235L256 301.176H195.765Z" fill="white"/>
<path d="M301.114 314.29L279.88 301.176H256V331.294H309.998L301.114 314.29Z" fill="white"/>
<path d="M30.1176 256C30.1176 200.895 50.0616 148.469 86.0642 107.359C90.8579 112.154 251.206 272.502 256 277.296L266.039 256L256 234.704C247.746 226.45 115.615 94.3174 107.359 86.0632C148.452 50.0766 200.873 30.1176 256 30.1176L266.039 15.0588L256 0C115.376 0 0 113.653 0 256C0 398.645 115.651 512 256 512L266.039 496.941L256 481.882C131.451 481.882 30.1176 380.556 30.1176 256Z" fill="white"/>
<path d="M512 256C512 113.356 396.35 0 256 0V30.1176C380.549 30.1176 481.882 131.445 481.882 256C481.882 311.105 461.938 363.531 425.936 404.641C421.142 399.846 260.794 239.498 256 234.704V277.296C264.254 285.55 396.386 417.683 404.641 425.937C363.548 461.923 311.127 481.882 256 481.882V512C396.108 512 512 398.839 512 256Z" fill="white"/>
</svg>
